<?xml version="1.0" encoding="utf-8"?>
<!-- Generator: Adobe Illustrator 24.3.0, SVG Export Plug-In . SVG Version: 6.00 Build 0)  -->
<svg version="1.1" id="Layer_1" xmlns="http://www.w3.org/2000/svg" xmlns:xlink="http://www.w3.org/1999/xlink" x="0px" y="0px"
	 viewBox="0 0 816 1056" style="enable-background:new 0 0 816 1056;" xml:space="preserve" width="8.5in" height="11in">
<style type="text/css">
	.st0{fill:#3A444A;}
	.st1{fill:#5E676D;}
	.st2{fill-rule:evenodd;clip-rule:evenodd;fill:#5E676D;}
</style>
<rect id="Background" class="st0" width="816" height="1056"/>
<rect x="682" y="647" class="st1" width="89" height="89"/>
<path id="Rectangle_1_copy_4" class="st2" d="M722,764h49.3v49.3H722V764z"/>
<path id="Rectangle_1_copy_11" class="st2" d="M744,841h25.1v25.1H744V841z"/>
<path id="Rectangle_1_copy_12" class="st2" d="M684,841h25.1v25.1H684V841z"/>
<path id="Rectangle_1_copy_13" class="st2" d="M626,841h25.1v25.1H626V841z"/>
<path id="Rectangle_1_copy_14" class="st2" d="M568,841h25.1v25.1H568V841z"/>
<path id="Rectangle_1_copy_15" class="st2" d="M508,841h25.1v25.1H508V841z"/>
<path id="Rectangle_1_copy_16" class="st2" d="M450,841h25.1v25.1H450V841z"/>
<path id="Rectangle_1_copy_17" class="st2" d="M392,841h25.1v25.1H392V841z"/>
<path id="Rectangle_1_copy_18" class="st2" d="M332,841h25.1v25.1H332V841z"/>
<path id="Rectangle_1_copy_18-2" class="st2" d="M274,841h25.1v25.1H274V841z"/>
<path id="Rectangle_1_copy_18-3" class="st2" d="M214,841h25.1v25.1H214V841z"/>
<path id="Rectangle_1_copy_18-4" class="st2" d="M156,841h25.1v25.1H156V841z"/>
<path id="Rectangle_1_copy_18-5" class="st2" d="M98,841h25.1v25.1H98V841z"/>
<g>
	<path id="Rectangle_1_copy_19" class="st2" d="M741,345h25.1v25.1H741V345z"/>
	<path id="Rectangle_1_copy_19-2" class="st2" d="M683,345h25.1v25.1H683V345z"/>
	<path id="Rectangle_1_copy_19-3" class="st2" d="M623,346h25.1v25.1H623V346z"/>
	<path id="Rectangle_1_copy_19-4" class="st2" d="M565,345h25.1v25.1H565V345z"/>
	<path id="Rectangle_1_copy_19-5" class="st2" d="M507,345h25.1v25.1H507V345z"/>
</g>
<path id="Rectangle_1_copy_5" class="st2" d="M635,764h49.3v49.3H635V764z"/>
<path id="Rectangle_1_copy_6" class="st2" d="M541,764h49.3v49.3H541V764z"/>
<path id="Rectangle_1_copy_7" class="st2" d="M447,764h49.3v49.3H447V764z"/>
<path id="Rectangle_1_copy_8" class="st2" d="M359,764h49.3v49.3H359V764z"/>
<path id="Rectangle_1_copy_9" class="st2" d="M272,764h49.3v49.3H272V764z"/>
<path id="Rectangle_1_copy_10" class="st2" d="M185,764h49.3v49.3H185V764z"/>
<rect id="Rectangle_1_copy" x="546" y="647" class="st1" width="89" height="89"/>
<rect id="Rectangle_1_copy_2" x="410" y="647" class="st1" width="89" height="89"/>
<rect id="Rectangle_1_copy_3" x="272" y="647" class="st1" width="89" height="89"/>
</svg>
